General
Complete name                    : Planet of the Apes(2001).mkv
Format                           : Matroska
File size                        : 2.06 GiB
Duration                         : 1h 55mn
Overall bit rate                 : 2 565 Kbps


Video
ID                               : 1
Format                           : AVC
Duration                         : 1h 55mn
Bit rate                         : 1 759 Kbps
Nominal bit rate                 : 1 781 Kbps
Width                            : 720 pixels
Height                           : 436 pixels
Display aspect ratio             : 2.35:1
Frame rate                       : 25.000 fps
Resolution                       : 8 bits
Colorimetry                      : 4:2:0
Scan type                        : Progressive
Bits/(Pixel*Frame)               : 0.224
Stream size                      : 1.41 GiB (69%)
Writing library                  : x264 core 79


Audio
ID                               : 2
Format                           : DTS
Format/Info                      : Digital Theater Systems
Codec ID                         : A_DTS
Duration                         : 1h 55mn
Bit rate mode                    : Constant
Bit rate                         : 755 Kbps
Channel(s)                       : 6 channels
Channel positions                : Front: L C R, Surround: L R, LFE
Sampling rate                    : 48.0 KHz
Resolution                       : 16 bits
Stream size                      : 621 MiB (29%)
Language                         : English

Text #1
Language                         : Croatian

Text #2
Language                         : Czech

Text #3
Language                         : Danish

Text #4
Language                         : Dutch

Text #5
Language                         : English

Text #6
Language                         : Finnish

Text #7
Language                         : unknown!

Text #8
Language                         : Hungarian

Text #9
Language                         : Icelandic

Text #10
Language                         : Norwegian

Text #11
Language                         : Polish

Text #12
Language                         : Portuguese

Text #13
Language                         : Swedish

Text #14
Language                         : Turkish


